<svg width="35" height="35" viewBox="0 0 35 35" fill="none" xmlns="http://www.w3.org/2000/svg">
<path d="M14.5833 21.8751L22.152 17.5001L14.5833 13.1251V21.8751ZM31.4416 10.4563C31.6312 11.1417 31.7625 12.0605 31.85 13.2272C31.952 14.3938 31.9958 15.4001 31.9958 16.2751L32.0833 17.5001C32.0833 20.6938 31.85 23.0417 31.4416 24.5438C31.077 25.8563 30.2312 26.7022 28.9187 27.0667C28.2333 27.2563 26.9791 27.3876 25.0541 27.4751C23.1583 27.5772 21.4229 27.6209 19.8187 27.6209L17.5 27.7084C11.3895 27.7084 7.58329 27.4751 6.08121 27.0667C4.76871 26.7022 3.92288 25.8563 3.55829 24.5438C3.36871 23.8584 3.23746 22.9397 3.14996 21.773C3.04788 20.6063 3.00413 19.6001 3.00413 18.7251L2.91663 17.5001C2.91663 14.3063 3.14996 11.9584 3.55829 10.4563C3.92288 9.14383 4.76871 8.298 6.08121 7.93341C6.76663 7.74383 8.02079 7.61258 9.94579 7.52508C11.8416 7.423 13.577 7.37925 15.1812 7.37925L17.5 7.29175C23.6104 7.29175 27.4166 7.52508 28.9187 7.93341C30.2312 8.298 31.077 9.14383 31.4416 10.4563Z" fill="white"/>
</svg>
