<svg width="35" height="35" viewBox="0 0 35 35" fill="none" xmlns="http://www.w3.org/2000/svg">
<path d="M30.653 12.6981L27.104 15.5401C27.23 16.1771 27.3 16.8281 27.3 17.5001C27.3 22.9041 22.904 27.3001 17.5 27.3001C12.096 27.3001 7.7 22.9041 7.7 17.5001C7.7 12.5721 11.354 8.48407 16.1 7.79807V3.57007C9.03 4.27707 3.5 10.2551 3.5 17.5001C3.5 25.2211 9.779 31.5001 17.5 31.5001C25.221 31.5001 31.5 25.2211 31.5 17.5001C31.5 15.8131 31.199 14.1961 30.653 12.6981Z" fill="white"/>
<path d="M17.5 22.4001C20.2062 22.4001 22.4 20.2063 22.4 17.5001C22.4 14.7939 20.2062 12.6001 17.5 12.6001C14.7938 12.6001 12.6 14.7939 12.6 17.5001C12.6 20.2063 14.7938 22.4001 17.5 22.4001Z" fill="white"/>
<path d="M27.993 8.23903L25.606 11.998C24.353 10.157 22.484 8.75703 20.3 8.10603V3.78003C23.331 4.39603 26.019 5.99903 27.993 8.23903Z" fill="white"/>
<path d="M22.4 6.30005H20.3V17.5H22.4V6.30005Z" fill="white"/>
</svg>
